<svg xmlns="http://www.w3.org/2000/svg" version="1.1" xmlns:xlink="http://www.w3.org/1999/xlink" width="100.8" height="100.7"><svg xmlns="http://www.w3.org/2000/svg" version="1.1" xmlns:xlink="http://www.w3.org/1999/xlink" width="100.8" height="100.7"><svg version="1.1" id="Layer_1" xmlns="http://www.w3.org/2000/svg" xmlns:xlink="http://www.w3.org/1999/xlink" x="0px" y="0px" viewBox="0 0 100.8 100.7" style="enable-background:new 0 0 100.8 100.7;" xml:space="preserve">
<style type="text/css">
	.st0{fill:#FFFFFF;}
</style>
<g>
	<g>
		<path d="M35.7,94C19.6,94,6.5,74.3,6.5,50S19.6,6,35.7,6h28.1c16.1,0,29.1,19.7,29.1,44S79.8,94,63.7,94H35.7z M43.4,71
			c4.5,11.3,12.1,18,20.3,18C77,89,87.9,71.5,87.9,50c0-21.5-10.8-39-24.1-39c-13.3,0-24.1,17.5-24.1,39c0,7.1,1.2,14,3.5,20.1
			C43.2,70.3,43.3,70.6,43.4,71z M18,76.5c4.6,8,10.9,12.5,17.7,12.5h14.6c-4.1-3.2-7.6-7.9-10.3-13.6l-8.2,6.4
			c-0.4,0.3-1,0.5-1.5,0.5c-0.4,0-0.8-0.1-1.1-0.3L18,76.5z M29.9,76.8l8-6.3c-2.2-6.1-3.3-13-3.4-20l-10.5,6.4
			c-0.4,0.2-0.8,0.4-1.3,0.4c-0.5,0-0.9-0.1-1.3-0.4l-10-6c0.1,6.4,1.2,12.8,3.2,18.4L29.9,76.8z M22.8,51.9l12-7.3
			c0.5-5.8,1.7-11.4,3.6-16.4l-11.8,5.6C26.3,33.9,26,34,25.6,34c-0.6,0-1.2-0.2-1.6-0.6l-7.7-6.5c-2.5,5.4-4,11.7-4.6,18.3
			L22.8,51.9z M26,28.5L41.8,21c2.4-4.1,5.2-7.5,8.4-10H35.7c-6.4,0-12.4,4-17,11.3L26,28.5z"></path>
		<path class="st0" d="M63.7,7c15.5,0,28.1,19.3,28.1,43S79.2,93,63.7,93H35.7C20.1,93,7.5,73.7,7.5,50S20.1,7,35.7,7H63.7 M63.7,90
			c13.9,0,25.1-17.9,25.1-40c0-22.1-11.3-40-25.1-40S38.6,27.9,38.6,50c0,7.5,1.3,14.5,3.6,20.5c0.1,0.2,0.2,0.4,0.3,0.7
			C46.9,82.5,54.8,90,63.7,90 M25.8,29.7l16.7-7.9c2.9-5.2,6.7-9.2,10.9-11.8H35.7c-7.2,0-13.7,4.8-18.3,12.6L25.8,29.7 M22.8,53
			l13-7.9c0.5-7,2.1-13.4,4.6-19l-14.1,6.7C26,32.9,25.8,33,25.6,33c-0.3,0-0.7-0.1-1-0.4l-8.7-7.3C13.1,31,11.2,38,10.7,45.7
			L22.8,53 M35.6,48.8l-12,7.3c-0.2,0.1-0.5,0.2-0.8,0.2c-0.3,0-0.5-0.1-0.8-0.2l-11.5-7c0,0.3,0,0.6,0,0.9c0,7.3,1.2,14.1,3.4,20
			c0.1,0,0.1,0,0.2,0.1L30,78l9.1-7.1c-2.3-6.2-3.6-13.3-3.6-20.9C35.6,49.6,35.6,49.2,35.6,48.8 M30.2,81.3c-0.2,0-0.5-0.1-0.7-0.2
			l-13.9-6.9c4.6,9.6,11.8,15.8,20,15.8h17.8c-5.4-3.2-9.9-8.9-13.1-16.2l-9.2,7.1C30.9,81.2,30.5,81.3,30.2,81.3 M63.7,5H35.7
			C19,5,5.5,25.2,5.5,50S19,95,35.7,95h28.1c16.6,0,30.1-20.2,30.1-45S80.3,5,63.7,5L63.7,5z M44,69.6c-2.2-5.9-3.4-12.7-3.4-19.6
			c0-10.3,2.5-20,7.1-27.2C52,15.8,57.7,12,63.7,12c6,0,11.7,3.8,16.1,10.8c4.6,7.2,7.1,16.9,7.1,27.2c0,10.3-2.5,20-7.1,27.2
			C75.4,84.2,69.7,88,63.7,88c-7.8,0-15-6.5-19.4-17.3C44.3,70.3,44.1,70,44,69.6L44,69.6z M20,22.2C24.3,15.6,29.8,12,35.7,12h11.9
			c-2.4,2.3-4.6,5.1-6.5,8.2l-15,7.1L20,22.2L20,22.2z M12.8,44.6c0.5-5.8,1.8-11.3,3.9-16.1l6.7,5.6c0.6,0.5,1.4,0.8,2.3,0.8
			c0.5,0,1-0.1,1.5-0.3l9.6-4.5c-1.4,4.4-2.4,9.1-2.8,13.9l-11.1,6.7L12.8,44.6L12.8,44.6z M22.8,58.3c0.6,0,1.3-0.2,1.8-0.5l9-5.5
			c0.2,6.2,1.3,12.4,3.2,17.9l-7,5.4l-14.3-7.1c-1.7-4.9-2.7-10.3-2.9-15.9l8.4,5.1C21.5,58.1,22.2,58.3,22.8,58.3L22.8,58.3z
			 M30.2,83.3c0.8,0,1.5-0.3,2.1-0.7l7.2-5.6c2.2,4.4,4.9,8.2,8,11.1H35.7c-5.5,0-10.7-3.2-14.9-9l7.9,3.9
			C29.1,83.1,29.7,83.3,30.2,83.3L30.2,83.3z"></path>
	</g>
	<g>
		<path d="M63.7,77c-8.5,0-15.2-11.9-15.2-27c0-15.2,6.7-27,15.2-27S79,34.9,79,50C79,65.2,72.3,77,63.7,77z M63.7,28
			c-5.5,0-10.2,10.3-10.2,22c0,11.7,4.8,22,10.2,22C69.2,72,74,61.7,74,50C74,38.3,69.2,28,63.7,28z"></path>
		<path class="st0" d="M63.7,24c8,0,14.2,11.4,14.2,26c0,14.6-6.3,26-14.2,26S49.5,64.6,49.5,50C49.5,35.4,55.7,24,63.7,24 M63.7,73
			C69.8,73,75,62.5,75,50c0-12.5-5.1-23-11.2-23S52.5,37.5,52.5,50C52.5,62.5,57.6,73,63.7,73 M63.7,22c-9.3,0-16.2,12-16.2,28
			c0,16,7,28,16.2,28S80,66,80,50C80,34,73,22,63.7,22L63.7,22z M63.7,71c-4.4,0-9.2-9-9.2-21c0-12,4.9-21,9.2-21S73,38,73,50
			C73,62,68.1,71,63.7,71L63.7,71z"></path>
	</g>
</g>
</svg></svg><style>@media (prefers-color-scheme: light) { :root { filter: none; } }
@media (prefers-color-scheme: dark) { :root { filter: none; } }
</style></svg>